
<svg width="701" height="79" viewBox="0 0 701 79" fill="none" xmlns="http://www.w3.org/2000/svg">
  <path d="M0.321023 77V4.27273H29.0142C34.5066 4.27273 39.1941 5.25521 43.0767 7.22017C46.983 9.16146 49.9541 11.9195 51.9901 15.4943C54.0497 19.0455 55.0795 23.224 55.0795 28.0298C55.0795 32.8594 54.0379 37.0142 51.9545 40.4943C49.8712 43.9508 46.8527 46.6023 42.8991 48.4489C38.9692 50.2955 34.2107 51.2188 28.6236 51.2188H9.41193V38.8608H26.1378C29.0734 38.8608 31.5118 38.4583 33.4531 37.6534C35.3944 36.8485 36.8385 35.6411 37.7855 34.0312C38.7562 32.4214 39.2415 30.4209 39.2415 28.0298C39.2415 25.6151 38.7562 23.5791 37.7855 21.9219C36.8385 20.2647 35.3826 19.0099 33.4176 18.1577C31.4763 17.2817 29.026 16.8438 26.0668 16.8438H15.6974V77H0.321023ZM39.5966 43.9034L57.6719 77H40.6974L23.0128 43.9034H39.5966ZM85.641 78.0653C80.0302 78.0653 75.2006 76.929 71.1523 74.6562C67.1277 72.3598 64.0264 69.1165 61.8484 64.9261C59.6703 60.7121 58.5813 55.7287 58.5813 49.9759C58.5813 44.3651 59.6703 39.4408 61.8484 35.2031C64.0264 30.9654 67.0922 27.6629 71.0458 25.2955C75.0231 22.928 79.6869 21.7443 85.0373 21.7443C88.6358 21.7443 91.9857 22.3243 95.087 23.4844C98.212 24.6207 100.935 26.3371 103.255 28.6335C105.598 30.9299 107.421 33.8182 108.723 37.2983C110.025 40.7547 110.676 44.803 110.676 49.4432V53.598H64.6183V44.223H96.4364C96.4364 42.045 95.963 40.1155 95.016 38.4347C94.069 36.7538 92.7551 35.4399 91.0742 34.4929C89.417 33.5223 87.4876 33.0369 85.2859 33.0369C82.9895 33.0369 80.9535 33.5696 79.1779 34.6349C77.426 35.6766 76.0529 37.0852 75.0586 38.8608C74.0643 40.6127 73.5553 42.5658 73.5316 44.7202V53.6335C73.5316 56.3324 74.0288 58.6643 75.0231 60.6293C76.0411 62.5942 77.4734 64.1094 79.32 65.1747C81.1665 66.2401 83.3564 66.7727 85.8896 66.7727C87.5704 66.7727 89.1093 66.536 90.506 66.0625C91.9028 65.589 93.0984 64.8788 94.0927 63.9318C95.087 62.9848 95.8446 61.8248 96.3654 60.4517L110.357 61.375C109.647 64.7367 108.191 67.6723 105.989 70.1818C103.811 72.6676 100.994 74.6089 97.5373 76.0057C94.1045 77.3788 90.1391 78.0653 85.641 78.0653ZM141.407 78.0653C135.796 78.0653 130.966 76.929 126.918 74.6562C122.893 72.3598 119.792 69.1165 117.614 64.9261C115.436 60.7121 114.347 55.7287 114.347 49.9759C114.347 44.3651 115.436 39.4408 117.614 35.2031C119.792 30.9654 122.858 27.6629 126.811 25.2955C130.789 22.928 135.453 21.7443 140.803 21.7443C144.401 21.7443 147.751 22.3243 150.853 23.4844C153.978 24.6207 156.7 26.3371 159.02 28.6335C161.364 30.9299 163.187 33.8182 164.489 37.2983C165.791 40.7547 166.442 44.803 166.442 49.4432V53.598H120.384V44.223H152.202C152.202 42.045 151.729 40.1155 150.782 38.4347C149.835 36.7538 148.521 35.4399 146.84 34.4929C145.183 33.5223 143.253 33.0369 141.051 33.0369C138.755 33.0369 136.719 33.5696 134.944 34.6349C133.192 35.6766 131.819 37.0852 130.824 38.8608C129.83 40.6127 129.321 42.5658 129.297 44.7202V53.6335C129.297 56.3324 129.794 58.6643 130.789 60.6293C131.807 62.5942 133.239 64.1094 135.086 65.1747C136.932 66.2401 139.122 66.7727 141.655 66.7727C143.336 66.7727 144.875 66.536 146.272 66.0625C147.668 65.589 148.864 64.8788 149.858 63.9318C150.853 62.9848 151.61 61.8248 152.131 60.4517L166.123 61.375C165.412 64.7367 163.956 67.6723 161.755 70.1818C159.577 72.6676 156.759 74.6089 153.303 76.0057C149.87 77.3788 145.905 78.0653 141.407 78.0653ZM196.959 78.0653C191.372 78.0653 186.566 76.8816 182.542 74.5142C178.541 72.1231 175.463 68.8087 173.309 64.571C171.178 60.3333 170.113 55.4564 170.113 49.9403C170.113 44.3532 171.19 39.4527 173.344 35.2386C175.522 31.0009 178.612 27.6984 182.613 25.331C186.614 22.9399 191.372 21.7443 196.888 21.7443C201.647 21.7443 205.813 22.6084 209.388 24.3366C212.963 26.0649 215.792 28.4915 217.875 31.6165C219.959 34.7415 221.107 38.411 221.32 42.625H207.044C206.642 39.9025 205.577 37.7126 203.848 36.0554C202.144 34.3745 199.907 33.5341 197.137 33.5341C194.793 33.5341 192.745 34.1733 190.993 35.4517C189.265 36.7064 187.916 38.5412 186.945 40.956C185.974 43.3707 185.489 46.2945 185.489 49.7273C185.489 53.2074 185.962 56.1667 186.909 58.6051C187.88 61.0436 189.241 62.902 190.993 64.1804C192.745 65.4588 194.793 66.098 197.137 66.098C198.865 66.098 200.416 65.7429 201.789 65.0327C203.185 64.3224 204.334 63.2926 205.233 61.9432C206.157 60.5701 206.76 58.9247 207.044 57.0071H221.32C221.083 61.1738 219.947 64.8433 217.911 68.0156C215.899 71.1643 213.117 73.6264 209.566 75.402C206.015 77.1776 201.812 78.0653 196.959 78.0653ZM251.864 78.0653C246.253 78.0653 241.423 76.929 237.375 74.6562C233.35 72.3598 230.249 69.1165 228.071 64.9261C225.893 60.7121 224.804 55.7287 224.804 49.9759C224.804 44.3651 225.893 39.4408 228.071 35.2031C230.249 30.9654 233.315 27.6629 237.268 25.2955C241.246 22.928 245.91 21.7443 251.26 21.7443C254.858 21.7443 258.208 22.3243 261.31 23.4844C264.435 24.6207 267.157 26.3371 269.477 28.6335C271.821 30.9299 273.644 33.8182 274.946 37.2983C276.248 40.7547 276.899 44.803 276.899 49.4432V53.598H230.841V44.223H262.659C262.659 42.045 262.186 40.1155 261.239 38.4347C260.292 36.7538 258.978 35.4399 257.297 34.4929C255.64 33.5223 253.71 33.0369 251.509 33.0369C249.212 33.0369 247.176 33.5696 245.401 34.6349C243.649 35.6766 242.276 37.0852 241.281 38.8608C240.287 40.6127 239.778 42.5658 239.754 44.7202V53.6335C239.754 56.3324 240.251 58.6643 241.246 60.6293C242.264 62.5942 243.696 64.1094 245.543 65.1747C247.389 66.2401 249.579 66.7727 252.112 66.7727C253.793 66.7727 255.332 66.536 256.729 66.0625C258.125 65.589 259.321 64.8788 260.315 63.9318C261.31 62.9848 262.067 61.8248 262.588 60.4517L276.58 61.375C275.869 64.7367 274.413 67.6723 272.212 70.1818C270.034 72.6676 267.216 74.6089 263.76 76.0057C260.327 77.3788 256.362 78.0653 251.864 78.0653ZM314.735 77H298.258L323.365 4.27273H343.18L368.251 77H351.774L333.556 20.892H332.988L314.735 77ZM313.706 48.4134H352.626V60.4162H313.706V48.4134ZM398.315 22.4545V33.8182H365.467V22.4545H398.315ZM372.925 9.38636H388.053V60.2386C388.053 61.6354 388.266 62.7244 388.692 63.5057C389.118 64.2633 389.71 64.7959 390.467 65.1037C391.249 65.4115 392.148 65.5653 393.166 65.5653C393.876 65.5653 394.587 65.5062 395.297 65.3878C396.007 65.2457 396.552 65.1392 396.93 65.0682L399.31 76.3253C398.552 76.562 397.487 76.8343 396.114 77.142C394.741 77.4735 393.071 77.6747 391.107 77.7457C387.461 77.8878 384.265 77.4025 381.518 76.2898C378.796 75.1771 376.677 73.4489 375.162 71.1051C373.647 68.7614 372.901 65.8021 372.925 62.2273V9.38636ZM419.049 61.304L419.085 43.1577H421.286L438.758 22.4545H456.123L432.65 49.8693H429.063L419.049 61.304ZM405.342 77V4.27273H420.469V77H405.342ZM439.433 77L423.381 53.2429L433.467 42.554L457.153 77H439.433ZM459.545 77V22.4545H474.673V77H459.545ZM467.144 15.4233C464.895 15.4233 462.966 14.6776 461.356 13.1861C459.77 11.6709 458.977 9.85985 458.977 7.75284C458.977 5.6695 459.77 3.8821 461.356 2.39062C462.966 0.875471 464.895 0.117894 467.144 0.117894C469.393 0.117894 471.311 0.875471 472.897 2.39062C474.507 3.8821 475.312 5.6695 475.312 7.75284C475.312 9.85985 474.507 11.6709 472.897 13.1861C471.311 14.6776 469.393 15.4233 467.144 15.4233ZM497.919 45.4659V77H482.791V22.4545H497.208V32.0781H497.848C499.055 28.9058 501.079 26.3963 503.92 24.5497C506.761 22.6795 510.206 21.7443 514.254 21.7443C518.042 21.7443 521.344 22.5729 524.162 24.2301C526.979 25.8873 529.169 28.2547 530.731 31.3324C532.294 34.3864 533.075 38.0322 533.075 42.2699V77H517.947V44.9688C517.971 41.6307 517.118 39.0265 515.39 37.1562C513.662 35.2623 511.283 34.3153 508.252 34.3153C506.217 34.3153 504.417 34.7533 502.855 35.6293C501.316 36.5052 500.109 37.7836 499.233 39.4645C498.38 41.1217 497.942 43.1222 497.919 45.4659ZM586.381 38.0085L572.532 38.8608C572.295 37.6771 571.786 36.6117 571.005 35.6648C570.224 34.6941 569.194 33.9247 567.915 33.3565C566.661 32.7647 565.157 32.4688 563.406 32.4688C561.062 32.4688 559.085 32.9659 557.475 33.9602C555.865 34.9309 555.06 36.233 555.06 37.8665C555.06 39.1686 555.581 40.2694 556.623 41.169C557.665 42.0687 559.452 42.7907 561.985 43.3352L571.857 45.3239C577.16 46.4129 581.114 48.1648 583.718 50.5795C586.322 52.9943 587.624 56.1667 587.624 60.0966C587.624 63.6714 586.571 66.8082 584.464 69.5071C582.38 72.206 579.516 74.313 575.87 75.8281C572.248 77.3196 568.069 78.0653 563.335 78.0653C556.114 78.0653 550.361 76.562 546.076 73.5554C541.815 70.5251 539.317 66.4058 538.583 61.1974L553.462 60.4162C553.912 62.6179 555.001 64.2988 556.729 65.4588C558.458 66.5952 560.671 67.1634 563.37 67.1634C566.022 67.1634 568.152 66.6544 569.762 65.6364C571.396 64.5947 572.224 63.2571 572.248 61.6236C572.224 60.2505 571.644 59.1259 570.508 58.25C569.371 57.3504 567.62 56.6638 565.252 56.1903L555.806 54.3082C550.479 53.2429 546.514 51.3963 543.91 48.7685C541.329 46.1406 540.039 42.7907 540.039 38.7188C540.039 35.215 540.986 32.1965 542.88 29.6634C544.798 27.1302 547.485 25.1771 550.941 23.804C554.421 22.4309 558.493 21.7443 563.157 21.7443C570.046 21.7443 575.468 23.2003 579.421 26.1122C583.398 29.0241 585.719 32.9896 586.381 38.0085ZM617.795 78.0653C612.279 78.0653 607.509 76.8935 603.484 74.5497C599.483 72.1823 596.394 68.8916 594.216 64.6776C592.038 60.4399 590.949 55.5275 590.949 49.9403C590.949 44.3059 592.038 39.3816 594.216 35.1676C596.394 30.9299 599.483 27.6392 603.484 25.2955C607.509 22.928 612.279 21.7443 617.795 21.7443C623.311 21.7443 628.07 22.928 632.071 25.2955C636.095 27.6392 639.197 30.9299 641.375 35.1676C643.553 39.3816 644.642 44.3059 644.642 49.9403C644.642 55.5275 643.553 60.4399 641.375 64.6776C639.197 68.8916 636.095 72.1823 632.071 74.5497C628.07 76.8935 623.311 78.0653 617.795 78.0653ZM617.866 66.3466C620.376 66.3466 622.471 65.6364 624.152 64.2159C625.833 62.7718 627.099 60.8068 627.951 58.321C628.827 55.8352 629.265 53.0062 629.265 49.8338C629.265 46.6615 628.827 43.8324 627.951 41.3466C627.099 38.8608 625.833 36.8958 624.152 35.4517C622.471 34.0076 620.376 33.2855 617.866 33.2855C615.333 33.2855 613.202 34.0076 611.474 35.4517C609.77 36.8958 608.479 38.8608 607.603 41.3466C606.751 43.8324 606.325 46.6615 606.325 49.8338C606.325 53.0062 606.751 55.8352 607.603 58.321C608.479 60.8068 609.77 62.7718 611.474 64.2159C613.202 65.6364 615.333 66.3466 617.866 66.3466ZM665.606 45.4659V77H650.478V22.4545H664.896V32.0781H665.535C666.743 28.9058 668.767 26.3963 671.608 24.5497C674.449 22.6795 677.893 21.7443 681.941 21.7443C685.729 21.7443 689.032 22.5729 691.849 24.2301C694.666 25.8873 696.856 28.2547 698.419 31.3324C699.981 34.3864 700.762 38.0322 700.762 42.2699V77H685.635V44.9688C685.658 41.6307 684.806 39.0265 683.078 37.1562C681.35 35.2623 678.97 34.3153 675.94 34.3153C673.904 34.3153 672.105 34.7533 670.542 35.6293C669.003 36.5052 667.796 37.7836 666.92 39.4645C666.068 41.1217 665.63 43.1222 665.606 45.4659Z" fill="currentColor"/>
  </svg>
  