
<svg width="512" height="512" viewBox="0 0 512 512" fill="none" xmlns="http://www.w3.org/2000/svg">
    <path d="M319.04 27.3543C319.04 27.3543 432.859 95.0705 462.635 202.832C489.491 300.042 467.957 346.417 467.957 346.417C467.957 346.417 483.966 361.882 499.862 399.584C523.615 455.945 505.183 484.657 505.183 484.657C505.183 484.657 503.44 445.03 446.694 436.811C394.704 429.27 375.774 481.895 276.526 479.358C219.373 477.887 100.289 463.78 0 319.833C48.6615 347.526 112.245 390.142 191.431 383.643C270.616 377.144 287.146 351.738 287.146 351.738C287.146 351.738 135.478 228.556 53.1677 96.4971C115.257 150.865 269.461 258.763 265.861 256.023C218.807 219.906 111.657 69.9133 111.657 69.9133C111.657 69.9133 342.986 267.752 361.576 266.665C369.23 250.248 408.8 165.3 319.04 27.3543Z" fill="currentColor"/>
    </svg>
    